<svg width="24" height="24" viewBox="0 0 24 24" fill="none" xmlns="http://www.w3.org/2000/svg">
<path fill-rule="evenodd" clip-rule="evenodd" d="M4.91196 0H19.088C21.7895 0 23.9999 2.2104 23.9999 4.91196V19.088C23.9999 21.7895 21.7895 23.9999 19.088 23.9999H4.91196C2.2104 24 0 21.7896 0 19.088V4.91196C0 2.2104 2.2104 0 4.91196 0Z" fill="black"/>
<path fill-rule="evenodd" clip-rule="evenodd" d="M11.9767 3.97556C16.8396 3.97556 20.7818 7.13226 20.7818 11.0262C20.7818 12.3864 20.3005 13.6563 19.4673 14.7334C19.426 14.7947 19.3721 14.8624 19.3042 14.9373L19.2991 14.9428C19.0145 15.2834 18.6939 15.6031 18.3415 15.8982C15.9066 18.1488 11.8988 20.8283 11.3698 20.4149C10.9099 20.0556 12.1272 18.298 10.7228 18.0055C10.6249 17.9942 10.5272 17.9821 10.4303 17.9684L10.4284 17.9683V17.9682C6.30388 17.3822 3.17169 14.4972 3.17169 11.0262C3.17156 7.13226 7.11379 3.97556 11.9767 3.97556Z" fill="white"/>
<path fill-rule="evenodd" clip-rule="evenodd" d="M6.86796 13.2753H8.6438C8.8964 13.2753 9.10301 13.0686 9.10301 12.816V12.7777C9.10301 12.5251 8.8964 12.3185 8.6438 12.3185H7.36548V9.41002C7.36548 9.15741 7.15887 8.95081 6.90627 8.95081H6.86796C6.61536 8.95081 6.40875 9.15741 6.40875 9.41002V12.8159C6.40875 13.0686 6.61536 13.2753 6.86796 13.2753ZM17.872 11.1404V11.1021C17.872 10.8495 17.6653 10.6429 17.4127 10.6429H16.1344V9.91574H17.4127C17.6653 9.91574 17.872 9.70913 17.872 9.45653V9.41822C17.872 9.16561 17.6653 8.959 17.4127 8.959H15.6369C15.3843 8.959 15.1777 9.16561 15.1777 9.41822V12.8241C15.1777 13.0767 15.3843 13.2834 15.6369 13.2834H17.4127C17.6653 13.2834 17.872 13.0767 17.872 12.8241V12.7858C17.872 12.5332 17.6653 12.3266 17.4127 12.3266H16.1344V11.5995H17.4127C17.6653 11.5996 17.872 11.3929 17.872 11.1404ZM14.4568 13.1384L14.457 13.1382C14.5419 13.0525 14.5896 12.9367 14.5897 12.8161V9.41015C14.5897 9.15754 14.3831 8.95093 14.1305 8.95093H14.0922C13.8396 8.95093 13.6329 9.15754 13.6329 9.41015V11.4095L11.9731 9.18315C11.8938 9.04471 11.7445 8.95093 11.5744 8.95093H11.5361C11.2835 8.95093 11.0768 9.15754 11.0768 9.41015V12.8161C11.0768 13.0687 11.2834 13.2753 11.5361 13.2753H11.5744C11.827 13.2753 12.0336 13.0687 12.0336 12.8161V10.7793L13.7054 13.0628C13.7157 13.0788 13.7269 13.0941 13.739 13.1088L13.7391 13.1089C13.785 13.1715 13.8479 13.2145 13.9179 13.2407C13.9717 13.263 14.0305 13.2753 14.0921 13.2753H14.1304C14.2052 13.2753 14.2789 13.2569 14.3449 13.2217C14.3909 13.1998 14.4296 13.1716 14.4568 13.1384ZM9.93286 13.2753H9.97117C10.2238 13.2753 10.4304 13.0686 10.4304 12.816V9.41008C10.4304 9.15748 10.2238 8.95087 9.97117 8.95087H9.93286C9.68026 8.95087 9.47359 9.15748 9.47359 9.41008V12.816C9.47359 13.0686 9.68026 13.2753 9.93286 13.2753Z" fill="black"/>
</svg>
