<svg width="25" height="25" viewBox="0 0 25 25" fill="none" xmlns="http://www.w3.org/2000/svg">
<g clip-path="url(#clip0)">
<path d="M0.0284411 12.0569C0.0232838 9.88085 0.554539 7.8716 1.62216 6.02906C2.6898 4.18651 4.14236 2.72708 5.97979 1.65072C7.81726 0.574351 9.82399 0.0336009 12 0.0284436C14.176 0.0232863 16.1852 0.554518 18.0278 1.62216C19.8703 2.68981 21.3298 4.14233 22.4061 5.9798C23.4825 7.81726 24.0232 9.82397 24.0284 12C24.0335 14.176 23.5023 16.1852 22.4347 18.0278C21.367 19.8703 19.9145 21.3297 18.077 22.4061C16.2396 23.4825 14.2329 24.0232 12.0568 24.0284C9.88087 24.0335 7.8716 23.5023 6.02905 22.4347C4.18653 21.367 2.72708 19.9145 1.65071 18.077C0.574372 16.2396 0.0335985 14.2329 0.0284411 12.0569ZM2.02044 12.0521C2.02635 14.5481 2.87156 16.7461 4.55607 18.6461C5.3205 17.1403 6.53311 15.7055 8.19388 14.3415C9.85467 12.9776 11.4766 12.1177 13.0598 11.762C12.8185 11.2025 12.5853 10.6991 12.3602 10.2516C9.61031 11.1381 6.63536 11.5852 3.43535 11.5928C2.81135 11.5943 2.34734 11.5874 2.0433 11.5721C2.04345 11.6361 2.03966 11.7161 2.03187 11.8121C2.0241 11.9081 2.02028 11.9881 2.02044 12.0521ZM2.32658 9.5794C2.67866 9.61055 3.1987 9.62533 3.88669 9.6237C6.55869 9.61737 9.09382 9.25136 11.4921 8.52567C10.271 6.36856 8.93073 4.57173 7.47132 3.13519C6.20885 3.77819 5.12695 4.66875 4.22564 5.80689C3.32435 6.94502 2.69133 8.20254 2.32658 9.5794ZM5.92714 19.9389C7.73849 21.3426 9.78015 22.0418 12.0521 22.0364C13.2361 22.0336 14.4116 21.8068 15.5785 21.356C15.252 18.6208 14.6218 15.9743 13.6877 13.4165C12.2165 13.74 10.7344 14.5515 9.24146 15.851C7.74854 17.1506 6.64376 18.5132 5.92714 19.9389ZM9.55749 2.36224C10.9689 3.81491 12.2772 5.62779 13.4824 7.80095C15.6562 6.8838 17.2935 5.71992 18.3941 4.3093C16.5345 2.7777 14.4047 2.01475 12.0047 2.02044C11.1887 2.02237 10.373 2.13631 9.55749 2.36224ZM14.3504 9.5029C14.5916 10.0143 14.8652 10.6617 15.171 11.445C16.3548 11.3301 17.6426 11.2711 19.0346 11.2678C20.0266 11.2655 21.0107 11.2871 21.9868 11.3328C21.8536 9.15711 21.065 7.22299 19.621 5.5304C18.5847 7.08487 16.8279 8.40903 14.3504 9.5029ZM15.775 13.1235C16.5966 15.4896 17.1544 17.9203 17.4483 20.4156C18.7104 19.5966 19.7399 18.5461 20.5368 17.2643C21.3338 15.9824 21.8105 14.5972 21.967 13.1089C20.7988 13.0316 19.7347 12.9941 18.7747 12.9964C17.8947 12.9985 16.8948 13.0409 15.775 13.1235Z" fill="black"/>
</g>
<defs>
<clipPath id="clip0">
<rect y="0.0568848" width="24" height="24" transform="rotate(-0.135797 0 0.0568848)" fill="white"/>
</clipPath>
</defs>
</svg>
