<svg width="24" height="24" viewBox="0 0 24 24" fill="none" xmlns="http://www.w3.org/2000/svg">
<g clip-path="url(#clip0)">
<path fill-rule="evenodd" clip-rule="evenodd" d="M11.9999 -3.05176e-05C5.28597 -3.05176e-05 0.0826416 4.91302 0.0826416 11.5485C0.0826416 15.0194 1.50694 18.0185 3.82568 20.0906C4.01994 20.2655 4.13738 20.5074 4.14697 20.7685L4.21174 22.8861C4.23331 23.5616 4.93107 24 5.54976 23.7293L7.91403 22.6873C8.11405 22.5988 8.33844 22.5819 8.54946 22.6394C9.63566 22.9388 10.7938 23.0969 11.9999 23.0969C18.7139 23.0969 23.9172 18.1838 23.9172 11.5484C23.9172 4.91302 18.7139 -3.05176e-05 11.9999 -3.05176e-05Z" fill="url(#paint0_linear)"/>
<path fill-rule="evenodd" clip-rule="evenodd" d="M4.84482 14.9261L8.34565 9.37823C8.90195 8.4967 10.0961 8.27629 10.9305 8.90153L13.7144 10.988C13.8388 11.0809 13.99 11.1309 14.1452 11.1305C14.3005 11.1301 14.4514 11.0792 14.5753 10.9856L18.3351 8.13495C18.8362 7.75413 19.4933 8.35542 19.1551 8.88717L15.6567 14.4326C15.1004 15.3141 13.9063 15.5346 13.0718 14.9093L10.2879 12.8229C10.1636 12.7299 10.0124 12.6799 9.85712 12.6803C9.70186 12.6808 9.55094 12.7316 9.42709 12.8253L5.66485 15.6783C5.16373 16.0592 4.50666 15.4579 4.84482 14.9261Z" fill="white"/>
</g>
<defs>
<linearGradient id="paint0_linear" x1="11.9999" y1="-3.05176e-05" x2="11.9999" y2="23.8107" gradientUnits="userSpaceOnUse">
<stop/>
<stop offset="1"/>
</linearGradient>
<clipPath id="clip0">
<rect width="24" height="24" fill="white"/>
</clipPath>
</defs>
</svg>
