<svg width="40" height="60" viewBox="0 0 40 60" fill="none" xmlns="http://www.w3.org/2000/svg">
<path d="M32.7273 0H7.27273C3.27273 0 0 2.63415 0 5.85366V54.1463C0 57.3659 3.27273 60 7.27273 60H32.7273C36.7273 60 40 57.3659 40 54.1463V5.85366C40 2.63415 36.7273 0 32.7273 0ZM38.1818 54.1463C38.1818 56.561 35.7273 58.5366 32.7273 58.5366H7.27273C4.27273 58.5366 1.81818 56.561 1.81818 54.1463V5.85366C1.81818 3.43902 4.27273 1.46341 7.27273 1.46341H9.09091C9.54545 1.46341 10 1.7561 10 2.19512V2.92683C10 3.73171 10.8182 4.39024 11.8182 4.39024H28.1818C29.1818 4.39024 30 3.73171 30 2.92683V2.19512C30 1.7561 30.4545 1.46341 30.9091 1.46341H32.7273C35.7273 1.46341 38.1818 3.43902 38.1818 5.85366V54.1463Z" fill="black"/>
<path d="M7.27271 35.8537V32.1951C7.27271 31.7561 7.63634 31.4634 8.1818 31.4634C8.72725 31.4634 9.09089 31.7561 9.09089 32.1951V34.5366L11.3636 33.439C11.8182 33.2195 12.3636 33.3658 12.6363 33.6585C12.9091 34.0244 12.7272 34.4634 12.3636 34.6829L9.90907 35.8537L12.2727 37.0244C12.7272 37.2439 12.8182 37.6829 12.5454 38.0488C12.3636 38.2683 12.0909 38.4146 11.7273 38.4146C11.5454 38.4146 11.3636 38.4146 11.2727 38.3415L7.63634 36.5122C7.54543 36.5122 7.54543 36.439 7.45452 36.439C7.36361 36.3658 7.36361 36.2927 7.27271 36.2195V36.1463C7.27271 36 7.27271 35.9268 7.27271 35.8537Z" fill="black"/>
<path d="M32.7273 35.8537V32.1951C32.7273 31.7561 32.3637 31.4634 31.8182 31.4634C31.2728 31.4634 30.9091 31.7561 30.9091 32.1951V34.5366L28.6364 33.439C28.1819 33.2195 27.6364 33.3658 27.3637 33.6585C27.0909 34.0244 27.2728 34.4634 27.6364 34.6829L30 35.8537L27.6364 37.0244C27.1819 37.2439 27.0909 37.6829 27.3637 38.0488C27.5455 38.2683 27.8182 38.4146 28.1819 38.4146C28.3637 38.4146 28.5455 38.4146 28.6364 38.3415L32.2728 36.5122C32.3637 36.5122 32.3637 36.439 32.4546 36.439C32.5455 36.3658 32.5455 36.2927 32.6364 36.2195V36.1463C32.7273 36 32.7273 35.9268 32.7273 35.8537Z" fill="black"/>
<path d="M32.6364 23.9269C32.6364 23.8537 32.6364 23.8537 32.6364 23.9269C32.5455 23.7805 32.5455 23.7073 32.4546 23.6342C32.4546 23.6342 32.3637 23.561 32.2728 23.561L28.6364 21.7317C28.1819 21.5122 27.6364 21.6586 27.3637 21.9512C27.0909 22.3171 27.2728 22.7561 27.6364 22.9756L30 24.1464L27.6364 25.3171C27.1819 25.5366 27.0909 25.9756 27.3637 26.3415C27.5455 26.561 27.8182 26.7073 28.1819 26.7073C28.3637 26.7073 28.5455 26.7073 28.6364 26.6342L30.9091 25.5366V27.8049C30.9091 28.2439 31.2728 28.5366 31.8182 28.5366C32.3637 28.5366 32.7273 28.2439 32.7273 27.8049V24.1464C32.7273 24.0732 32.7273 24 32.6364 23.9269Z" fill="black"/>
<path d="M7.36361 23.9269C7.36361 23.8537 7.36361 23.8537 7.36361 23.9269C7.45452 23.7805 7.45452 23.7073 7.54543 23.6342C7.54543 23.6342 7.63634 23.561 7.72725 23.561L11.3636 21.7317C11.8182 21.5122 12.3636 21.6586 12.6363 21.9512C12.9091 22.3171 12.7272 22.7561 12.3636 22.9756L9.90907 24.1464L12.2727 25.3171C12.7272 25.5366 12.8182 25.9756 12.5454 26.3415C12.3636 26.561 12.0909 26.7073 11.7273 26.7073C11.5454 26.7073 11.3636 26.7073 11.2727 26.6342L9.09089 25.4634V27.8049C9.09089 28.2439 8.72725 28.5366 8.1818 28.5366C7.63634 28.5366 7.27271 28.2439 7.27271 27.8049V24.1464C7.27271 24.0732 7.2727 24 7.36361 23.9269Z" fill="black"/>
<path d="M24.4545 39.5122C24.1818 39.1463 23.6363 39.0732 23.1818 39.2927L20.9091 40.3902V38.0488C20.9091 37.6098 20.5454 37.3171 20 37.3171C19.4545 37.3171 19.0909 37.6098 19.0909 38.0488V40.3902L16.8182 39.2927C16.3636 39.0732 15.8182 39.2195 15.5454 39.5122C15.2727 39.8781 15.4545 40.3171 15.8182 40.5366L19.4545 42.3659C19.6363 42.439 19.8182 42.439 20 42.439C20.1818 42.439 20.3636 42.439 20.4545 42.3659L24.0909 40.5366C24.5454 40.3171 24.6364 39.8781 24.4545 39.5122Z" fill="black"/>
<path d="M24.0909 19.4634L20.4546 17.6341C20.1818 17.4878 19.8182 17.4878 19.5455 17.6341L15.9091 19.4634C15.4546 19.6829 15.3637 20.1219 15.6364 20.4878C15.9091 20.8537 16.4546 20.9268 16.9091 20.7073L19.1818 19.6098V22.6829C19.1818 23.1219 19.5455 23.4146 20.0909 23.4146C20.6364 23.4146 21 23.1219 21 22.6829V19.6098L23.2727 20.7073C23.4546 20.7805 23.5455 20.7805 23.7273 20.7805C24 20.7805 24.3637 20.6341 24.5455 20.4146C24.6364 20.1219 24.5455 19.6829 24.0909 19.4634Z" fill="black"/>
<path d="M24.4545 27.8049C24.1818 27.439 23.6364 27.3659 23.1818 27.5854L20 29.122L16.8182 27.5854C16.3636 27.3659 15.8182 27.5122 15.5454 27.8049C15.2727 28.1708 15.4545 28.6098 15.8182 28.8293L19 30.439V33.2927C19 33.7317 19.3636 34.0244 19.9091 34.0244C20.4545 34.0244 20.8182 33.7317 20.8182 33.2927V30.439L24 28.8293C24.5454 28.6098 24.6364 28.1708 24.4545 27.8049Z" fill="black"/>
</svg>
